<svg width="420" height="170" viewBox="0 0 420 170" fill="none" xmlns="http://www.w3.org/2000/svg">
<path d="M50.7188 111.281C47.7188 111.094 44.1562 111 40.0312 111H38.5312V48.4219C40.4688 48.5781 41.8438 48.6562 42.6562 48.6562H44.5781C47.0469 48.6562 49.0938 48.5312 50.7188 48.2812V73.2656H72.75V48.4219C75.3438 48.5781 77.8594 48.6562 80.2969 48.6562C82.7656 48.6562 84.3125 48.5312 84.9375 48.2812V111.281C83.4375 111.094 80.4688 111 76.0312 111H72.75V84.5156H50.7188V111.281ZM124.5 111.281C123 111.094 119.141 111 112.922 111H111.422V59.1562H102.141C99.3906 59.1562 97.7656 59.2969 97.2656 59.5781C96.7656 59.8594 96.375 60.1094 96.0938 60.3281L95.9531 60.2812V48.2812L96.0938 48.1406C97.125 48.4844 99.9062 48.6562 104.438 48.6562H133.828C136.578 48.6562 138.203 48.5156 138.703 48.2344C139.203 47.9531 139.594 47.7031 139.875 47.4844L140.016 47.5312V59.5312L139.875 59.6719C138.844 59.3281 136.062 59.1562 131.531 59.1562H124.5V111.281ZM172.594 111.281C171.094 111.094 167.234 111 161.016 111H159.516V59.1562H150.234C147.484 59.1562 145.859 59.2969 145.359 59.5781C144.859 59.8594 144.469 60.1094 144.188 60.3281L144.047 60.2812V48.2812L144.188 48.1406C145.219 48.4844 148 48.6562 152.531 48.6562H181.922C184.672 48.6562 186.297 48.5156 186.797 48.2344C187.297 47.9531 187.688 47.7031 187.969 47.4844L188.109 47.5312V59.5312L187.969 59.6719C186.938 59.3281 184.156 59.1562 179.625 59.1562H172.594V111.281ZM197.297 48.3281C201.641 47.7656 206.094 47.4844 210.656 47.4844C219.156 47.4844 225.609 49.4844 230.016 53.4844C234.453 57.4531 236.672 63.4062 236.672 71.3438C236.672 78.4375 234.25 84.0469 229.406 88.1719C224.875 92.0469 219.047 93.9844 211.922 93.9844C211.109 93.9844 210.219 93.9375 209.25 93.8438V111H197.297V48.3281ZM212.062 58.7812C211.125 58.7812 210.188 58.8125 209.25 58.875V83.5312C210.25 83.6562 211.469 83.7188 212.906 83.7188C214.344 83.7188 215.844 83.4219 217.406 82.8281C218.969 82.2031 220.281 81.3438 221.344 80.25C223.562 77.9688 224.672 74.9688 224.672 71.25C224.672 62.9375 220.469 58.7812 212.062 58.7812ZM255.984 105.75C255.984 108.438 256.047 110.188 256.172 111H244.266V41.1562H255.984V105.75ZM266.859 86.9062C266.859 83.25 267.484 79.8594 268.734 76.7344C269.984 73.6094 271.75 70.875 274.031 68.5312C278.906 63.5625 285.281 61.0781 293.156 61.0781C299.812 61.0781 305.156 63.2812 309.188 67.6875C313.156 71.9375 315.141 77.2812 315.141 83.7188C315.141 86.1875 314.953 87.875 314.578 88.7812C311.453 89.6562 305.094 90.0938 295.5 90.0938H279C279.812 93.4375 281.703 96.0469 284.672 97.9219C287.641 99.7656 291.5 100.688 296.25 100.688C301.219 100.688 305.484 99.7969 309.047 98.0156C309.984 97.5469 310.688 97.1094 311.156 96.7031C311.094 98.0156 311.016 99.3594 310.922 100.734L310.406 108.047C308.031 109.672 304.188 110.797 298.875 111.422C297.312 111.609 295.812 111.703 294.375 111.703C286.438 111.703 279.875 109.391 274.688 104.766C269.469 100.109 266.859 94.1562 266.859 86.9062ZM302.672 81C301.391 74.2812 297.734 70.9219 291.703 70.9219C286.953 70.9219 283.344 72.9688 280.875 77.0625C280.125 78.3125 279.547 79.6875 279.141 81.1875C279.891 81.2188 280.812 81.25 281.906 81.2812H285.375C286.531 81.3125 287.641 81.3281 288.703 81.3281H291.375C292.969 81.3281 294.531 81.3125 296.062 81.2812L299.906 81.1406C300.938 81.1094 301.859 81.0625 302.672 81ZM336 86.0156L319.406 62.0156H334.078L342.75 76.9688L352.125 62.0156H365.766C365.734 62.0156 365.391 62.4688 364.734 63.375L349.453 85.1719L366.797 111H352.266L342.891 95.1094L333.609 111H318.938L336 86.0156Z" fill="#0F172A"/>
</svg>
